<svg id="Capa_1" enable-background="new 0 0 512.019 512.019" height="512" viewBox="0 0 512.019 512.019" width="512" xmlns="http://www.w3.org/2000/svg"><g><g><path d="m390.196 381.27c-.564 3.495 1.393 6.908 4.694 8.187l12.134 4.703c3.301 1.279 7.047.076 8.986-2.885l5.068-7.742-13.601-9.434-15.806-1.963z" fill="#d6e0f4"/><path d="m394.114 356.982-2.444 15.153 29.407 11.398 8.406-12.843-16.762-10.659z" fill="#bfc5eb"/><path d="m328.118 357.21c-.564 3.495 1.393 6.908 4.694 8.187l12.134 4.703c3.301 1.279 7.047.076 8.986-2.886l5.068-7.741-14.457-8.766-14.95-2.632z" fill="#d6e0f4"/><path d="m332.036 332.922-2.444 15.153 29.407 11.398 8.406-12.843-15.906-10.328z" fill="#bfc5eb"/><path d="m141.099 284.725c-.564 3.495 1.393 6.908 4.694 8.187l12.134 4.703c3.301 1.279 7.047.076 8.986-2.885l5.068-7.742-12.403-8.97-17.004-2.428z" fill="#d6e0f4"/><path d="m145.016 260.437-2.444 15.153 29.407 11.398 8.407-12.843-15.442-10.148z" fill="#bfc5eb"/><path d="m71.525 252.847c-.915 3.42.685 7.014 3.839 8.621l11.594 5.91c3.154 1.608 7.003.791 9.232-1.959l5.649-6.968-28.014-14.195z" fill="#d6e0f4"/><path d="m77.888 229.082-4.062 15.175c9.052 4.995 18.481 9.744 28.014 14.195l9.844-12.143-15.759-11.562z" fill="#bfc5eb"/><path d="m14.664 200.096-4.56 8.136c-1.731 3.088-1.066 6.966 1.593 9.302l9.778 8.587c2.66 2.336 6.591 2.494 9.43.379l6.973-5.195z" fill="#d6e0f4"/><path d="m22.132 186.771-7.468 13.325c6.243 7.255 14.147 14.358 23.214 21.209l12.755-9.503z" fill="#bfc5eb"/><path d="m501.932 217.254c7.869-12.845-3.524-28.849-18.237-25.62l-65.752 14.431c-18.901 4.148-37.985-6.194-44.83-24.294l-8.851-23.406-223.705-41c-47.632 0-88.111 0-97.323 0-6.001 0-11.89 1.297-17.107 3.861-2.3 4.774-7.628 14.444-7.628 21.013 0 41.318 78.124 82.629 141.516 107.199l284.468 110.252c6.707 2.6 13.986-1.786 20.208-4.683 19.054-27.48 31.293-65.3 31.293-128.043z" fill="#8a94db"/><path d="m444.483 355.69-284.467-110.253c-63.392-24.57-137.516-65.881-137.516-107.199 0-6.569 1.328-12.239 3.628-17.013-10.75 5.285-18.628 15.983-18.628 32.013 0 34.189 50.751 68.372 104.18 93.071l169.615 51.458s86.111 48.863 86.111 48.863l62.078 24.06c10.548 4.088 22.522.82 29.549-8.046 1.947-2.457 3.833-5.002 5.659-7.637-6.222 2.898-13.502 3.283-20.209.683z" fill="#717ed4"/><path d="m325.919 117.363c-11.208 0-96.156 0-170.361 0 0 15.883 10.209 31 26.228 31 9.987 0 105.954-5 176.805-5l-3.197-8.456c-3.65-9.649-12.141-17.544-29.475-17.544z" fill="#f5fcff"/><path d="m155.558 117.363c-5.059 0-10.068 0-15 0 0 25.046 16.099 41 41.359 41h182.346l-5.672-15c-70.851 0-166.818 0-176.805 0-16.019 0-26.228-10.116-26.228-26z" fill="#d6e0f4"/><path d="m361.276 246.309h-199.01l119.028 51.458 107.852 36.476c37.996-26.132 20.275-87.934-27.87-87.934z" fill="#f5fcff"/><path d="m162.266 246.309h-50.586c11.141 5.15 22.399 9.889 33.337 14.128l222.389 86.194s12.915-7.191 17.401-9.689c1.523-.848 2.964-1.752 4.339-2.698z" fill="#d6e0f4"/></g><g><path d="m409.684 402.155c-1.802 0-3.621-.325-5.37-1.002l-12.134-4.703c-6.56-2.542-10.508-9.43-9.388-16.375l2.951-18.293-15.387-5.964-10.149 15.504c-3.853 5.887-11.411 8.314-17.971 5.771l-12.133-4.703c-6.56-2.542-10.508-9.428-9.388-16.375l2.951-18.294-140.329-54.389-10.149 15.505c-3.853 5.885-11.41 8.313-17.971 5.771l-12.133-4.703c-6.56-2.542-10.508-9.429-9.388-16.375l2.956-18.326c-7.782-3.107-15.402-6.341-22.794-9.667l-11.84 14.604c-4.43 5.465-12.195 7.112-18.463 3.918l-11.594-5.91c-6.268-3.196-9.497-10.448-7.677-17.244l4.884-18.243c-6.567-3.853-12.725-7.736-18.393-11.611l-15.385 11.462c-5.643 4.205-13.574 3.885-18.86-.759l-9.777-8.586c-5.287-4.643-6.626-12.467-3.186-18.604l9.651-17.221c-8.791-11.537-13.218-22.936-13.218-34.105 0-13.271 4.652-24.486 13.454-32.432 7.816-7.056 18.393-10.942 29.781-10.942 4.142 0 7.5 3.358 7.5 7.5s-3.358 7.5-7.5 7.5c-14.054 0-28.235 8.773-28.235 28.375 0 15.972 14.452 34.555 41.794 53.741 15.333 10.76 34.767 21.668 56.551 31.83h198.655c4.142 0 7.5 3.358 7.5 7.5s-3.358 7.5-7.5 7.5h-163.33l218.163 84.556 14.325-7.977c20.388-11.352 23.342-31.864 19.678-45.979-3.665-14.116-16.225-30.6-39.56-30.6h-19.276c-4.142 0-7.5-3.358-7.5-7.5s3.358-7.5 7.5-7.5h19.276c26.254 0 47.48 16.419 54.078 41.831 6.597 25.411-3.961 50.083-26.899 62.854l-3.443 1.917 47.181 18.287c7.522 2.917 15.944.619 20.96-5.711 24.434-30.832 35.33-71.24 35.33-131.021 0-1.383.382-2.739 1.104-3.918l5.949-9.71c3.073-5.016.497-9.359-.365-10.571-.862-1.211-4.122-5.064-9.869-3.806l-65.751 14.431c-22.372 4.912-45.352-7.543-53.453-28.967l-7.018-18.56h-11.163c-4.142 0-7.5-3.358-7.5-7.5s3.358-7.5 7.5-7.5h5.492l-5.03-13.303c-3.231-8.544-10.578-12.697-22.459-12.697h-91.71c-4.142 0-7.5-3.358-7.5-7.5s3.358-7.5 7.5-7.5h91.71c10.465 0 29.122 2.909 36.49 22.392l7.036 18.608h61.645c4.142 0 7.5 3.358 7.5 7.5s-3.358 7.5-7.5 7.5h-55.973l5.012 13.254c5.487 14.511 21.052 22.95 36.207 19.621l65.752-14.431c9.794-2.149 19.489 1.59 25.305 9.758 5.815 8.169 6.173 18.555.936 27.105l-4.849 7.915c-.263 62.243-12.19 104.93-38.57 138.216-7.813 9.859-20.174 14.337-32.157 12.087l-10.468 15.992c-2.828 4.316-7.646 6.772-12.602 6.772zm-9.642-34.831-2.442 15.14 12.133 4.703 8.399-12.832zm-62.077-24.061-2.442 15.141 12.134 4.703 8.399-12.832zm-187.02-72.485-2.442 15.141 12.134 4.703 8.399-12.832zm-68.278-30.546-3.896 14.554 11.593 5.91 9.487-11.702c-5.925-2.875-11.665-5.801-17.184-8.762zm-58.915-41.01-7.105 12.677 9.777 8.587 11.678-8.7c-5.341-4.199-10.125-8.389-14.35-12.564zm294.165-33.359h-136c-14.272 0-26.441-4.51-35.189-13.042-7.345-7.164-11.853-16.737-13.224-27.958h-60.269c-4.142 0-7.5-3.358-7.5-7.5s3.358-7.5 7.5-7.5h130.974c4.142 0 7.5 3.358 7.5 7.5s-3.358 7.5-7.5 7.5h-55.556c2.736 16.418 14.767 26 33.264 26h136c4.142 0 7.5 3.358 7.5 7.5s-3.358 7.5-7.5 7.5zm186.583-40h-106.583c-4.142 0-7.5-3.358-7.5-7.5s3.358-7.5 7.5-7.5h106.583c4.142 0 7.5 3.358 7.5 7.5s-3.358 7.5-7.5 7.5z"/></g></g></svg>