<svg id="Capa_1" enable-background="new 0 0 512.003 512.003" height="512" viewBox="0 0 512.003 512.003" width="512" xmlns="http://www.w3.org/2000/svg"><g id="XMLID_39_"><g id="XMLID_413_"><path id="XMLID_499_" d="m43.51 103.003h438v216.002h-438z" fill="#a0e4a5" transform="matrix(.966 .259 -.259 .966 63.557 -60.753)"/><g id="XMLID_414_"><path id="XMLID_497_" d="m10 103.003h438v216.002h-438z" fill="#b7eabc"/><path id="XMLID_496_" d="m387.27 143.003h-316.54c0 11.449-9.281 20.73-20.73 20.73v94.542c11.449 0 20.73 9.281 20.73 20.73h316.54c0-11.449 9.281-20.73 20.73-20.73v-94.542c-11.449 0-20.73-9.281-20.73-20.73z" fill="#d8f4d9"/><circle id="XMLID_494_" cx="229" cy="211.004" fill="#b7eabc" r="26"/></g></g><circle id="XMLID_316_" cx="263.867" cy="326.836" fill="#ffec80" r="47.832"/><circle id="XMLID_1137_" cx="132.667" cy="414.17" fill="#ffec80" r="47.832"/><g id="XMLID_1641_"><path id="XMLID_1647_" d="m504.588 153.705-46.588-12.483v-38.219c0-5.523-4.477-10-10-10h-169.956l-196.531-52.661c-2.563-.687-5.292-.327-7.588.999-2.297 1.326-3.973 3.51-4.659 6.072l-12.216 45.59h-47.05c-5.523 0-10 4.477-10 10v216.002c0 5.523 4.477 10 10 10h56.978c5.523 0 10-4.477 10-10s-4.477-10-10-10h-46.978v-196.002h418v196.002h-119.128c-2.418-7.44-6.307-14.218-11.321-20h79.718c5.523 0 10-4.477 10-10 0-5.917 4.813-10.73 10.73-10.73 5.523 0 10-4.477 10-10v-94.542c0-5.523-4.477-10-10-10-5.917 0-10.73-4.813-10.73-10.73 0-5.523-4.477-10-10-10h-316.539c-5.523 0-10 4.477-10 10 0 5.917-4.813 10.73-10.73 10.73-5.523 0-10 4.477-10 10v94.542c0 5.523 4.477 10 10 10 5.917 0 10.73 4.813 10.73 10.73 0 5.523 4.477 10 10 10h149.451c-5.014 5.782-8.903 12.56-11.321 20h-51.882c-5.523 0-10 4.477-10 10s4.477 10 10 10h49.111c1.146 30.886 26.616 55.663 57.777 55.663 24.437 0 45.368-15.244 53.822-36.715l125.818 33.713c.852.228 1.722.341 2.588.341 1.741 0 3.467-.455 5-1.34 2.297-1.326 3.973-3.51 4.659-6.072l55.905-208.642c1.431-5.335-1.735-10.819-7.07-12.248zm-418.592-91.456 114.775 30.754h-123.016zm-25.996 187.695v-77.881c8.915-3.076 15.984-10.145 19.06-19.06h299.88c3.076 8.915 10.145 15.984 19.06 19.06v77.881c-8.915 3.076-15.984 10.145-19.06 19.061h-299.88c-3.076-8.916-10.145-15.985-19.06-19.061zm203.867 114.724c-20.861 0-37.832-16.971-37.832-37.832s16.971-37.832 37.832-37.832c20.86 0 37.832 16.971 37.832 37.832s-16.972 37.832-37.832 37.832zm175.156-4.909-114.775-30.754h123.016zm18.977-70.822v-127.01l31.752 8.508z"/><path id="XMLID_1667_" d="m229 175.004c-19.851 0-36 16.149-36 36s16.149 36 36 36 36-16.149 36-36-16.149-36-36-36zm0 52c-8.822 0-16-7.178-16-16s7.178-16 16-16 16 7.178 16 16-7.178 16-16 16z"/><path id="XMLID_1668_" d="m311.5 221.004h19c5.523 0 10-4.477 10-10s-4.477-10-10-10h-19c-5.523 0-10 4.477-10 10s4.477 10 10 10z"/><path id="XMLID_1670_" d="m146.5 201.004h-19c-5.523 0-10 4.477-10 10s4.477 10 10 10h19c5.523 0 10-4.477 10-10s-4.477-10-10-10z"/><path id="XMLID_1673_" d="m132.667 356.338c-31.888 0-57.832 25.943-57.832 57.832 0 31.888 25.943 57.832 57.832 57.832s57.832-25.943 57.832-57.832-25.944-57.832-57.832-57.832zm0 95.663c-20.86 0-37.832-16.971-37.832-37.832s16.971-37.832 37.832-37.832 37.832 16.971 37.832 37.832-16.972 37.832-37.832 37.832z"/><path id="XMLID_1674_" d="m119.05 326.071c1.86-1.86 2.93-4.43 2.93-7.07 0-2.63-1.07-5.21-2.93-7.07s-4.44-2.93-7.07-2.93c-2.64 0-5.21 1.07-7.07 2.93s-2.93 4.44-2.93 7.07c0 2.64 1.07 5.21 2.93 7.07 1.86 1.87 4.43 2.93 7.07 2.93 2.63 0 5.21-1.06 7.07-2.93z"/></g></g></svg>