<svg id="Capa_1" enable-background="new 0 0 512 512" height="512" viewBox="0 0 512 512" width="512" xmlns="http://www.w3.org/2000/svg"><g><g><path d="m67.5 159.25c-33.137 0-60 26.863-60 60v240c0 2.761 2.239 5 5 5h25v-240c0-19.33 15.67-35 35-35h367c19.33 0 35 15.67 35 35v240h25c2.761 0 5-2.239 5-5v-240c0-33.137-26.863-60-60-60z" fill="#fc8d94"/><path d="m504.5 219.25v240c0 2.76-2.24 5-5 5h-25v-245c0-33.14-26.86-60-60-60h30c33.14 0 60 26.86 60 60z" fill="#fa6f7c"/><path d="m241 190.68h30v273.57h-30z" fill="#fc8d94"/><path d="m256 270.75c-61.58 0-111.5-49.92-111.5-111.5 0-61.58 49.92-111.5 111.5-111.5 61.58 0 111.5 49.92 111.5 111.5 0 61.58-49.92 111.5-111.5 111.5z" fill="#ccf49f"/><path d="m367.5 159.25c0 30.79-12.48 58.67-32.66 78.84-20.18 20.18-48.05 32.66-78.84 32.66-5.09 0-10.1-.34-15-1.01 24.79-3.32 46.99-14.8 63.84-31.65 20.18-20.17 32.66-48.05 32.66-78.84s-12.48-58.67-32.66-78.84c-16.85-16.85-39.05-28.33-63.84-31.65 4.9-.67 9.91-1.01 15-1.01 30.79 0 58.66 12.48 78.84 32.66 20.18 20.17 32.66 48.05 32.66 78.84z" fill="#b3e59f"/></g><g><path d="m504.5 381.75c4.142 0 7.5-3.358 7.5-7.5v-155c0-37.22-30.28-67.5-67.5-67.5h-69.743c-3.884-62.135-55.66-111.5-118.757-111.5s-114.873 49.365-118.757 111.5h-34.743c-4.142 0-7.5 3.358-7.5 7.5s3.358 7.5 7.5 7.5h34.743c.318 5.093.958 10.099 1.9 15h-66.643c-23.435 0-42.5 19.065-42.5 42.5v232.5h-15v-237.5c0-28.949 23.551-52.5 52.5-52.5 4.142 0 7.5-3.358 7.5-7.5s-3.358-7.5-7.5-7.5c-37.22 0-67.5 30.28-67.5 67.5v240c0 6.893 5.607 12.5 12.5 12.5h487c6.893 0 12.5-5.607 12.5-12.5v-50c0-4.142-3.358-7.5-7.5-7.5s-7.5 3.358-7.5 7.5v47.5h-15v-232.5c0-23.435-19.065-42.5-42.5-42.5h-66.643c.942-4.901 1.581-9.907 1.9-15h69.743c28.949 0 52.5 23.551 52.5 52.5v155c0 4.142 3.358 7.5 7.5 7.5zm-248.5-326.5c57.346 0 104 46.654 104 104s-46.654 104-104 104-104-46.654-104-104 46.654-104 104-104zm-22.5 291.5h-50v-40h50zm-65 0h-60v-40h60zm-75 0h-48.5v-40h48.5zm-48.5 15h48.5v40h-48.5zm63.5 0h60v40h-60zm75 0h50v40h-50zm50-70h-50v-38.204c14.422 11.114 31.451 18.997 50 22.561zm-65 0h-60v-40h60zm-75 0h-48.5v-40h48.5zm-48.5 125h48.5v40h-48.5zm63.5 0h60v40h-60zm75 0h50v40h-50zm65-138.743c2.481.155 4.98.243 7.5.243s5.019-.088 7.5-.243v178.743h-15zm80-24.461v38.204h-50v-15.643c18.549-3.564 35.578-11.447 50-22.561zm-50 108.204h50v40h-50zm65 0h60v40h-60zm75 0h48.5v40h-48.5zm48.5-15h-48.5v-40h48.5zm-63.5 0h-60v-40h60zm-75 0h-50v-40h50zm-50 70h50v40h-50zm65 0h60v40h-60zm75 0h48.5v40h-48.5zm48.5-125h-48.5v-40h48.5zm-63.5 0h-60v-40h60zm-237.729-55h-57.271v-40h34.559c4.94 14.84 12.727 28.391 22.712 40zm-93.271-40h21v40h-48.5v-12.5c0-15.164 12.336-27.5 27.5-27.5zm394.5 27.5v12.5h-48.5v-40h21c15.164 0 27.5 12.336 27.5 27.5zm-63.5-27.5v40h-57.271c9.986-11.609 17.772-25.16 22.712-40z"/><path d="m191.446 166.75c3.448 29.857 27.197 53.606 57.054 57.054v5.946c0 4.142 3.358 7.5 7.5 7.5s7.5-3.358 7.5-7.5v-5.946c29.857-3.448 53.606-27.197 57.054-57.054h5.946c4.142 0 7.5-3.358 7.5-7.5s-3.358-7.5-7.5-7.5h-5.946c-3.448-29.857-27.197-53.606-57.054-57.054v-5.946c0-4.142-3.358-7.5-7.5-7.5s-7.5 3.358-7.5 7.5v5.946c-29.857 3.448-53.606 27.197-57.054 57.054h-5.946c-4.142 0-7.5 3.358-7.5 7.5s3.358 7.5 7.5 7.5zm57.054-56.936v26.936c0 4.142 3.358 7.5 7.5 7.5s7.5-3.358 7.5-7.5v-26.936c21.578 3.26 38.676 20.359 41.936 41.936h-26.936c-4.142 0-7.5 3.358-7.5 7.5s3.358 7.5 7.5 7.5h26.936c-3.26 21.578-20.359 38.676-41.936 41.936v-26.936c0-4.142-3.358-7.5-7.5-7.5s-7.5 3.358-7.5 7.5v26.936c-21.578-3.26-38.676-20.359-41.936-41.936h26.936c4.142 0 7.5-3.358 7.5-7.5s-3.358-7.5-7.5-7.5h-26.936c3.26-21.578 20.358-38.676 41.936-41.936z"/></g></g></svg>