<svg id="Capa_1" enable-background="new 0 0 512.001 512.001" height="512" viewBox="0 0 512.001 512.001" width="512" xmlns="http://www.w3.org/2000/svg"><g><g><path d="m270.19 427.757s-3.947 9.326-14.19 12.602c-10.243-3.277-14.19-12.602-14.19-12.602-14.378 0-23.91 6.27-29.847 12.536l20.837 25.531 3.769 30.372 46.862-6.696v-20.03l16.909-29.381c-5.787-6.196-15.27-12.332-30.15-12.332z" fill="#8a94db"/><path d="m247.069 489.501h36.362v15h-54.862v-35.03l-24.877-16.669s2.343-6.252 8.271-12.509l19.878 13.32c1.372-.938 3.07-1.435 4.891-1.278 3.914.338 6.836 3.781 6.836 7.709v25.956c.001 1.934 1.568 3.501 3.501 3.501zm36.363-20.03 24.877-16.669s-2.061-6.388-7.968-12.712l-16.909 11.33z" fill="#717ed4"/><path d="m73.998 317.37s-3.947 9.326-14.19 12.602c-10.243-3.277-14.19-12.602-14.19-12.602-14.378 0-23.91 6.27-29.847 12.536l20.837 25.531 3.769 30.372 46.862-6.696v-20.03l16.909-29.381c-5.787-6.196-15.27-12.332-30.15-12.332z" fill="#d97b7b"/><path d="m50.877 379.114h36.363v15h-54.863v-35.03l-24.876-16.669s2.343-6.252 8.271-12.509l19.878 13.32c1.372-.938 3.07-1.435 4.891-1.278 3.914.338 6.836 3.781 6.836 7.709v25.956c0 1.934 1.567 3.501 3.5 3.501zm36.363-20.03 24.877-16.669s-2.061-6.388-7.968-12.712l-16.909 11.33z" fill="#ca4646"/><path d="m197.882 287.672s-3.947 9.326-14.19 12.602c-10.243-3.277-14.19-12.602-14.19-12.602-14.378 0-23.91 6.27-29.847 12.536l20.837 25.531 3.769 30.372 46.862-6.696v-20.03l16.909-29.381c-5.788-6.197-15.27-12.332-30.15-12.332z" fill="#d97b7b"/><path d="m174.761 349.415h36.362v15h-54.862v-35.03l-24.877-16.669s2.343-6.252 8.271-12.509l19.878 13.32c1.372-.938 3.07-1.435 4.891-1.278 3.914.338 6.836 3.781 6.836 7.709v25.956c.001 1.934 1.568 3.501 3.501 3.501zm36.363-20.029 24.877-16.669s-2.061-6.388-7.968-12.712l-16.909 11.33z" fill="#ca4646"/><path d="m342.498 287.672s-3.947 9.326-14.19 12.602c-10.243-3.277-14.19-12.602-14.19-12.602-14.378 0-23.91 6.27-29.847 12.536l20.837 25.531 3.769 30.372 46.862-6.696v-20.03l16.909-29.381c-5.787-6.197-15.27-12.332-30.15-12.332z" fill="#d97b7b"/><path d="m319.377 349.415h36.362v15h-54.862v-35.03l-24.877-16.669s2.343-6.252 8.271-12.509l19.878 13.32c1.372-.938 3.07-1.435 4.891-1.278 3.914.338 6.836 3.781 6.836 7.709v25.956c.001 1.934 1.568 3.501 3.501 3.501zm36.363-20.029 24.877-16.669s-2.061-6.388-7.968-12.712l-16.909 11.33z" fill="#ca4646"/><path d="m466.382 317.37s-3.947 9.326-14.19 12.602c-10.243-3.277-14.19-12.602-14.19-12.602-14.378 0-23.91 6.27-29.847 12.536l20.837 25.531 3.769 30.372 46.862-6.696v-20.03l16.909-29.381c-5.788-6.196-15.27-12.332-30.15-12.332z" fill="#d97b7b"/><path d="m443.261 379.114h36.362v15h-54.862v-35.03l-24.877-16.669s2.343-6.252 8.271-12.509l19.878 13.32c1.372-.938 3.07-1.435 4.891-1.278 3.914.338 6.836 3.781 6.836 7.709v25.956c.001 1.934 1.568 3.501 3.501 3.501zm36.363-20.03 24.877-16.669s-2.061-6.388-7.968-12.712l-16.909 11.33z" fill="#ca4646"/><path d="m110.19 162.501s-3.947 9.326-14.19 12.602c-10.243-3.277-14.19-12.602-14.19-12.602-14.378 0-23.91 6.27-29.847 12.536l20.837 25.531 3.769 30.372 46.862-6.696v-20.03l16.909-29.381c-5.788-6.197-15.27-12.332-30.15-12.332z" fill="#d97b7b"/><path d="m87.069 224.244h36.362v15h-54.862v-35.03l-24.877-16.669s2.343-6.252 8.271-12.509l19.878 13.32c1.372-.938 3.07-1.435 4.891-1.278 3.914.338 6.836 3.781 6.836 7.709v25.956c.001 1.934 1.568 3.501 3.501 3.501zm36.363-20.03 24.877-16.669s-2.061-6.388-7.968-12.712l-16.909 11.33z" fill="#ca4646"/><path d="m270.19 158.501s-3.947 9.326-14.19 12.602c-10.243-3.277-14.19-12.602-14.19-12.602-14.378 0-23.91 6.27-29.847 12.536l20.837 25.531 3.769 30.372 46.862-6.696v-20.03l16.909-29.381c-5.788-6.197-15.27-12.332-30.15-12.332z" fill="#d97b7b"/><path d="m247.069 220.244h36.362v15h-54.862v-35.03l-24.877-16.669s2.343-6.252 8.271-12.509l19.878 13.32c1.372-.938 3.07-1.435 4.891-1.278 3.914.338 6.836 3.781 6.836 7.709v25.956c.001 1.934 1.568 3.501 3.501 3.501zm36.363-20.03 24.877-16.669s-2.061-6.388-7.968-12.712l-16.909 11.33z" fill="#ca4646"/><path d="m430.19 172.501s-3.947 9.326-14.19 12.602c-10.243-3.277-14.19-12.602-14.19-12.602-14.378 0-23.91 6.27-29.847 12.536l20.837 25.531 3.769 30.372 46.862-6.696v-20.03l16.909-29.381c-5.788-6.197-15.27-12.332-30.15-12.332z" fill="#d97b7b"/><path d="m407.069 234.244h36.362v15h-54.862v-35.03l-24.877-16.669s2.343-6.252 8.271-12.509l19.878 13.32c1.372-.938 3.07-1.435 4.891-1.278 3.914.338 6.836 3.781 6.836 7.709v25.956c.001 1.934 1.568 3.501 3.501 3.501zm36.363-20.03 24.877-16.669s-2.061-6.388-7.968-12.712l-16.909 11.33z" fill="#ca4646"/><path d="m140.19 32.501s-3.947 9.326-14.19 12.602c-10.243-3.277-14.19-12.602-14.19-12.602-14.378 0-23.91 6.27-29.847 12.536l20.837 25.531 3.769 30.372 46.862-6.696v-20.03l16.909-29.381c-5.788-6.197-15.27-12.332-30.15-12.332z" fill="#d97b7b"/><path d="m117.069 94.244h36.362v15h-54.862v-35.03l-24.876-16.669s2.343-6.252 8.271-12.509l19.878 13.32c1.372-.938 3.07-1.435 4.891-1.278 3.914.338 6.836 3.781 6.836 7.709v25.956c0 1.934 1.567 3.501 3.5 3.501zm36.363-20.03 24.877-16.669s-2.061-6.388-7.968-12.712l-16.909 11.33z" fill="#ca4646"/><path d="m270.19 7.501s-3.947 9.326-14.19 12.602c-10.243-3.277-14.19-12.602-14.19-12.602-14.378 0-23.91 6.27-29.847 12.536l20.837 25.531 3.769 30.372 46.862-6.696v-20.03l16.909-29.381c-5.788-6.197-15.27-12.332-30.15-12.332z" fill="#d97b7b"/><path d="m247.069 69.244h36.362v15h-54.862v-35.03l-24.877-16.669s2.343-6.252 8.271-12.509l19.878 13.32c1.372-.938 3.07-1.435 4.891-1.278 3.914.338 6.836 3.781 6.836 7.709v25.956c.001 1.934 1.568 3.501 3.501 3.501zm36.363-20.03 24.877-16.669s-2.061-6.388-7.968-12.712l-16.909 11.33z" fill="#ca4646"/><path d="m400.19 32.501s-3.947 9.326-14.19 12.602c-10.243-3.277-14.19-12.602-14.19-12.602-14.378 0-23.91 6.27-29.847 12.536l20.837 25.531 3.769 30.372 46.862-6.696v-20.03l16.909-29.381c-5.788-6.197-15.27-12.332-30.15-12.332z" fill="#d97b7b"/><path d="m377.069 94.244h36.362v15h-54.862v-35.03l-24.877-16.669s2.343-6.252 8.271-12.509l19.878 13.32c1.372-.938 3.07-1.435 4.891-1.278 3.914.338 6.836 3.781 6.836 7.709v25.956c.001 1.934 1.568 3.501 3.501 3.501zm36.363-20.03 24.877-16.669s-2.061-6.388-7.968-12.712l-16.909 11.33z" fill="#ca4646"/></g><g><path d="m368.309 512.001h-139.74c-4.142 0-7.5-3.358-7.5-7.5v-31.027l-21.552-14.441c-2.89-1.936-4.069-5.605-2.848-8.862.458-1.221 11.595-29.913 45.142-29.913 3.013 0 5.733 1.803 6.907 4.577.073.159 2.237 4.845 7.283 7.437 5.046-2.592 7.214-7.287 7.315-7.513 1.174-2.774 3.861-4.501 6.874-4.501 18.247 0 29.566 8.124 35.848 14.939 6.698 7.266 9.152 14.507 9.411 15.309 1.024 3.186-.186 6.664-2.965 8.527l-21.552 14.441v23.527h69.877v-9.243c0-4.142 3.358-7.5 7.5-7.5s7.5 3.358 7.5 7.5v16.743c0 4.142-3.358 7.5-7.5 7.5zm-132.24-15h39.862v-37.194c0-4.142 3.358-7.5 7.5-7.5 2.786 0 5.217 1.519 6.51 3.774l8.781-5.884c-3.349-5.364-10.577-13.367-24.353-14.737-2.79 4.003-7.873 9.416-16.084 12.043-1.486.476-3.084.476-4.57 0-8.199-2.623-13.278-8.022-16.071-12.024-13.103 1.426-20.543 9.412-24.158 14.857l8.573 5.744c1.293-2.255 3.724-3.774 6.51-3.774 4.142 0 7.5 3.358 7.5 7.5zm-37.5 15h-54.877c-4.142 0-7.5-3.358-7.5-7.5v-16.743c0-4.142 3.358-7.5 7.5-7.5s7.5 3.358 7.5 7.5v9.243h47.377c4.142 0 7.5 3.358 7.5 7.5s-3.357 7.5-7.5 7.5zm281.055-110.388h-54.862c-4.142 0-7.5-3.358-7.5-7.5v-31.027l-21.552-14.441c-2.78-1.862-3.989-5.341-2.965-8.527.258-.802 2.712-8.043 9.411-15.31 6.282-6.815 17.601-14.939 35.848-14.939 3.013 0 5.733 1.803 6.907 4.577.073.159 2.235 4.843 7.278 7.435 5.046-2.609 7.265-7.381 7.288-7.435 1.174-2.774 3.894-4.577 6.907-4.577 33.547 0 44.684 28.692 45.142 29.913 1.221 3.257.042 6.926-2.848 8.862l-21.552 14.441v31.027c-.002 4.144-3.36 7.501-7.502 7.501zm-47.363-15h39.862v-37.193c0-4.142 3.358-7.5 7.5-7.5 2.786 0 5.217 1.519 6.51 3.774l8.575-5.746c-3.606-5.434-11.048-13.429-24.16-14.856-2.793 4.002-7.872 9.401-16.071 12.024-1.486.476-3.084.476-4.57 0-8.212-2.627-13.294-8.04-16.084-12.043-13.773 1.37-21.004 9.379-24.352 14.737l8.78 5.883c1.293-2.255 3.725-3.774 6.51-3.774 4.142 0 7.5 3.358 7.5 7.5zm-345.021 15h-54.862c-4.142 0-7.5-3.358-7.5-7.5v-31.027l-21.552-14.44c-2.89-1.936-4.069-5.605-2.848-8.862.458-1.221 11.595-29.913 45.142-29.913 3.013 0 5.733 1.803 6.907 4.577.073.159 2.235 4.843 7.278 7.435 5.046-2.609 7.265-7.381 7.288-7.435 1.174-2.774 3.894-4.577 6.907-4.577 18.247 0 29.565 8.124 35.848 14.939 6.698 7.266 9.153 14.508 9.411 15.31 1.024 3.186-.185 6.665-2.965 8.527l-21.554 14.44v31.027c0 4.142-3.358 7.499-7.5 7.499zm-47.362-15h39.862v-37.193c0-4.142 3.358-7.5 7.5-7.5 2.786 0 5.217 1.519 6.51 3.774l8.781-5.884c-3.349-5.364-10.578-13.368-24.353-14.737-2.79 4.003-7.873 9.416-16.084 12.043-1.486.476-3.084.476-4.57 0-8.199-2.623-13.278-8.022-16.071-12.024-13.103 1.426-20.543 9.412-24.158 14.858l8.573 5.744c1.293-2.255 3.725-3.774 6.51-3.774 4.142 0 7.5 3.358 7.5 7.5zm315.862-14.698h-54.862c-4.142 0-7.5-3.358-7.5-7.5v-31.027l-21.552-14.441c-2.78-1.862-3.989-5.341-2.965-8.527.258-.802 2.713-8.043 9.411-15.31 6.282-6.815 17.601-14.939 35.848-14.939 3.013 0 5.733 1.803 6.907 4.577.073.159 2.235 4.843 7.278 7.435 5.046-2.609 7.265-7.381 7.288-7.435 1.174-2.774 3.894-4.577 6.907-4.577 33.547 0 44.684 28.692 45.142 29.913 1.221 3.257.042 6.926-2.848 8.862l-21.552 14.441v31.027c-.002 4.143-3.36 7.501-7.502 7.501zm-47.362-15h39.862v-37.194c0-4.142 3.358-7.5 7.5-7.5 2.786 0 5.217 1.519 6.51 3.774l8.575-5.746c-3.606-5.434-11.048-13.429-24.16-14.856-2.793 4.002-7.872 9.401-16.071 12.024-1.486.476-3.084.476-4.57 0-8.212-2.627-13.294-8.04-16.084-12.043-13.773 1.37-21.004 9.379-24.353 14.737l8.781 5.884c1.293-2.255 3.725-3.774 6.51-3.774 4.142 0 7.5 3.358 7.5 7.5zm-97.254 15h-54.862c-4.142 0-7.5-3.358-7.5-7.5v-31.027l-21.552-14.441c-2.89-1.936-4.069-5.605-2.848-8.862.458-1.221 11.595-29.913 45.142-29.913 3.013 0 5.733 1.803 6.907 4.577.073.159 2.235 4.843 7.278 7.435 5.046-2.609 7.265-7.381 7.288-7.435 1.174-2.774 3.894-4.577 6.907-4.577 18.247 0 29.566 8.124 35.848 14.939 6.698 7.266 9.152 14.508 9.411 15.31 1.024 3.186-.186 6.665-2.965 8.527l-21.552 14.441v31.027c-.002 4.141-3.36 7.499-7.502 7.499zm-47.363-15h39.862v-37.194c0-4.142 3.358-7.5 7.5-7.5 2.786 0 5.217 1.519 6.51 3.774l8.781-5.884c-3.349-5.364-10.577-13.368-24.353-14.737-2.79 4.003-7.873 9.416-16.084 12.043-1.486.476-3.084.476-4.57 0-8.199-2.623-13.278-8.022-16.071-12.024-13.103 1.426-20.543 9.412-24.158 14.858l8.573 5.744c1.293-2.255 3.725-3.774 6.51-3.774 4.142 0 7.5 3.358 7.5 7.5zm279.671-100.171h-54.862c-4.142 0-7.5-3.358-7.5-7.5v-31.027l-21.552-14.441c-2.78-1.862-3.99-5.341-2.965-8.526.258-.802 2.713-8.044 9.411-15.31 6.282-6.815 17.601-14.939 35.848-14.939 3.013 0 5.733 1.803 6.907 4.577.073.159 2.235 4.843 7.278 7.435 5.046-2.609 7.265-7.381 7.288-7.435 1.174-2.774 3.894-4.577 6.907-4.577 33.547 0 44.684 28.692 45.142 29.913 1.221 3.257.042 6.926-2.848 8.862l-21.552 14.441v31.027c-.002 4.142-3.36 7.5-7.502 7.5zm-47.363-15h39.862v-37.194c0-4.142 3.358-7.5 7.5-7.5 2.786 0 5.217 1.519 6.51 3.774l8.575-5.746c-3.606-5.434-11.048-13.429-24.16-14.856-2.793 4.002-7.872 9.401-16.071 12.024-1.486.476-3.084.476-4.57 0-8.212-2.627-13.294-8.04-16.084-12.043-13.773 1.37-21.004 9.379-24.353 14.737l8.781 5.883c1.293-2.255 3.725-3.774 6.51-3.774 4.142 0 7.5 3.358 7.5 7.5zm-272.637 5h-12.918c-4.142 0-7.5-3.358-7.5-7.5s3.358-7.5 7.5-7.5h5.418v-37.194c0-4.142 3.358-7.5 7.5-7.5 2.786 0 5.217 1.519 6.51 3.774l8.781-5.884c-3.349-5.364-10.577-13.368-24.353-14.737-2.79 4.003-7.873 9.416-16.084 12.043-1.486.476-3.084.476-4.57 0-8.198-2.623-13.278-8.022-16.07-12.023-13.094 1.43-20.545 9.433-24.156 14.859l8.57 5.742c1.293-2.255 3.725-3.774 6.51-3.774 4.142 0 7.5 3.358 7.5 7.5v37.193h4.444c4.142 0 7.5 3.358 7.5 7.5s-3.358 7.5-7.5 7.5h-11.945c-4.142 0-7.5-3.358-7.5-7.5v-31.027l-21.552-14.441c-2.89-1.936-4.069-5.605-2.848-8.862.458-1.221 11.595-29.913 45.142-29.913 3.013 0 5.733 1.803 6.907 4.577.073.159 2.235 4.843 7.278 7.435 5.046-2.609 7.265-7.381 7.288-7.435 1.174-2.774 3.894-4.577 6.907-4.577 18.247 0 29.566 8.124 35.848 14.939 6.698 7.266 9.152 14.508 9.411 15.31 1.024 3.185-.186 6.664-2.965 8.526l-21.552 14.441v31.027c-.001 4.143-3.359 7.501-7.501 7.501zm160-4h-54.862c-4.142 0-7.5-3.358-7.5-7.5v-31.027l-21.552-14.441c-2.89-1.936-4.069-5.605-2.848-8.862.458-1.221 11.595-29.913 45.142-29.913 3.013 0 5.733 1.803 6.907 4.577.073.159 2.237 4.845 7.283 7.437 5.046-2.592 7.214-7.287 7.315-7.513 1.174-2.774 3.861-4.501 6.874-4.501 18.247 0 29.566 8.124 35.848 14.939 6.698 7.266 9.152 14.508 9.411 15.31 1.024 3.185-.186 6.664-2.965 8.526l-21.552 14.441v31.027c-.001 4.142-3.359 7.5-7.501 7.5zm-47.363-15h39.862v-37.194c0-4.142 3.358-7.5 7.5-7.5 2.786 0 5.217 1.519 6.51 3.774l8.781-5.884c-3.349-5.364-10.577-13.368-24.353-14.737-2.79 4.003-7.873 9.416-16.084 12.043-1.486.476-3.084.476-4.57 0-8.199-2.623-13.278-8.022-16.071-12.024-13.103 1.426-20.543 9.412-24.158 14.858l8.573 5.744c1.293-2.255 3.725-3.774 6.51-3.774 4.142 0 7.5 3.358 7.5 7.5zm177.363-111h-54.862c-4.142 0-7.5-3.358-7.5-7.5v-31.027l-21.552-14.441c-2.78-1.862-3.99-5.341-2.965-8.526.258-.802 2.713-8.044 9.411-15.31 6.282-6.815 17.601-14.939 35.848-14.939 3.013 0 5.733 1.803 6.907 4.577.073.159 2.235 4.843 7.278 7.435 5.046-2.609 7.265-7.381 7.288-7.435 1.174-2.774 3.894-4.577 6.907-4.577 33.547 0 44.684 28.692 45.142 29.913 1.221 3.257.042 6.926-2.848 8.862l-24.877 16.669c-2.3 1.542-5.263 1.69-7.706.386s-3.969-3.848-3.969-6.617v-9.664c0-4.142 3.358-7.5 7.5-7.5 2.786 0 5.217 1.519 6.51 3.774l8.575-5.746c-3.606-5.434-11.048-13.429-24.16-14.856-2.793 4.002-7.872 9.401-16.071 12.024-1.486.476-3.084.476-4.57 0-8.212-2.627-13.294-8.04-16.084-12.043-13.773 1.37-21.004 9.379-24.353 14.737l8.781 5.883c1.293-2.255 3.725-3.774 6.51-3.774 4.142 0 7.5 3.358 7.5 7.5v37.193h39.877c.243-3.923 3.501-7.029 7.485-7.029 4.142 0 7.5 3.358 7.5 7.5v7.029c-.002 4.144-3.36 7.502-7.502 7.502zm-260 0h-54.863c-4.142 0-7.5-3.358-7.5-7.5v-31.027l-21.551-14.441c-2.89-1.936-4.069-5.605-2.848-8.862.458-1.221 11.595-29.913 45.142-29.913 3.013 0 5.733 1.803 6.907 4.577.073.159 2.235 4.843 7.278 7.435 5.046-2.609 7.265-7.381 7.288-7.435 1.174-2.774 3.894-4.577 6.907-4.577 18.247 0 29.566 8.124 35.848 14.939 6.698 7.266 9.152 14.508 9.411 15.31 1.024 3.185-.186 6.664-2.965 8.526l-21.552 14.441v31.027c-.002 4.142-3.36 7.5-7.502 7.5zm-47.363-15h39.862v-37.194c0-4.142 3.358-7.5 7.5-7.5 2.786 0 5.217 1.519 6.51 3.774l8.781-5.884c-3.349-5.364-10.577-13.368-24.353-14.737-2.79 4.003-7.873 9.416-16.084 12.043-1.486.476-3.084.476-4.57 0-8.199-2.623-13.278-8.022-16.071-12.024-13.103 1.426-20.543 9.412-24.158 14.858l8.573 5.744c1.293-2.255 3.725-3.774 6.51-3.774 4.142 0 7.5 3.358 7.5 7.5zm177.363-10h-54.862c-4.142 0-7.5-3.358-7.5-7.5v-31.027l-21.552-14.441c-2.89-1.936-4.069-5.605-2.848-8.862.458-1.221 11.595-29.913 45.142-29.913 3.013 0 5.733 1.803 6.907 4.577.073.159 2.235 4.843 7.278 7.435 5.046-2.609 7.265-7.381 7.288-7.435 1.174-2.774 3.894-4.577 6.907-4.577 18.247 0 29.566 8.124 35.848 14.939 6.698 7.266 9.152 14.508 9.411 15.31 1.024 3.185-.186 6.664-2.965 8.526l-21.552 14.441v31.027c-.002 4.142-3.36 7.5-7.502 7.5zm-47.363-15h39.862v-37.194c0-4.142 3.358-7.5 7.5-7.5 2.786 0 5.217 1.519 6.51 3.774l8.781-5.884c-3.349-5.364-10.577-13.368-24.353-14.737-2.79 4.003-7.873 9.416-16.084 12.043-1.486.476-3.084.476-4.57 0-8.199-2.623-13.278-8.022-16.071-12.024-13.103 1.426-20.543 9.412-24.158 14.858l8.573 5.744c1.293-2.255 3.725-3.774 6.51-3.774 4.142 0 7.5 3.358 7.5 7.5z"/></g></g></svg>