<svg height="511pt" viewBox="-5 1 511 511.99947" width="511pt" xmlns="http://www.w3.org/2000/svg"><path d="m501.257812 261.621094c0 138.28125-112.097656 250.378906-250.378906 250.378906-35.714844 0-69.6875-7.480469-100.429687-20.957031-21.164063-9.277344-39.777344-22.417969-57.398438-36.898438-19.511719-16.03125-37.578125-33.9375-51.5-55.101562-25.953125-39.449219-41.050781-86.671875-41.050781-137.421875 0-138.28125 112.097656-250.378906 250.378906-250.378906s250.378906 112.097656 250.378906 250.378906zm0 0" fill="#5de0c3"/><path d="m345.382812 209.035156c-32.203124 76.738282-120.519531 112.839844-197.257812 80.636719-26.128906-10.964844-47.546875-28.433594-63.160156-49.738281-11.15625-15.226563-18.332032-32.410156-23.164063-50.578125-5.441406-20.457031-7.640625-42.160157-3.980469-63.71875 1.894532-11.179688 5.09375-22.316407 9.667969-33.222657 32.203125-76.738281 120.519531-112.839843 197.257813-80.636718 76.738281 32.203125 112.839844 120.519531 80.636718 197.257812zm0 0" fill="#fde5bd"/><path d="m263.453125 290.207031c-28.019531 11.453125-57.476563 13.816407-85.148437 8.53125-23.15625-16.042969-42.101563-38.71875-53.558594-66.742187-31.488282-77.03125 5.429687-165.007813 82.464844-196.5 28.019531-11.453125 57.476562-13.816406 85.148437-8.53125 23.15625 16.042968 42.105469 38.722656 53.558594 66.742187 31.492187 77.035157-5.429688 165.011719-82.464844 196.5zm0 0" fill="#fff5f5"/><path d="m123.1875 178.5-22.511719 53.632812c-2.203125 5.253907-7.535156 8.488282-13.210937 8.015626l-2.5-.214844c-23.746094-32.386719-34.070313-73.578125-27.148438-114.296875l2.375-1.445313c4.871094-2.957031 11.089844-2.4375 15.402344 1.28125l44.054688 37.980469c4.3125 3.722656 5.742187 9.792969 3.539062 15.046875zm169.453125-151.421875c-8.558594-5.953125-17.894531-11.101563-27.894531-15.300781-3.105469-1.304688-6.191406-2.492188-9.332032-3.574219-4.160156 3.105469-6.210937 8.421875-5.003906 13.550781l13.316406 56.625c1.304688 5.542969 6.027344 9.617188 11.703126 10.089844l57.96875 4.832031c4.039062.335938 7.886718-1.230469 10.574218-4.046875-10.96875-24.554687-28.445312-46.242187-51.332031-62.175781zm-103.089844-26.117187c-40.398437 4.3125-77.742187 25.300781-102.890625 58.269531l.773438 3.238281c1.304687 5.546875 6.027344 9.621094 11.703125 10.09375l57.964843 4.832031c5.675782.472657 11.011719-2.761719 13.214844-8.011719l22.507813-53.636718c2.152343-5.125.800781-11.046875-3.273438-14.785156zm0 0" fill="#82665c"/><path d="m333.398438 93.300781-57.96875-4.832031c-5.675782-.472656-10.398438-4.546875-11.703126-10.089844l-12.585937-53.519531c13.914063-1.207031 27.886719-.46875 41.328125 2.097656.101562.074219.21875.144531.324219.21875 23.125 15.941407 40.496093 37.511719 51.21875 62.066407-2.691407 2.8125-6.574219 4.394531-10.613281 4.058593zm-80.46875 186.707031-44.054688-37.980468c-4.316406-3.71875-10.53125-4.238282-15.402344-1.285156l-46.875 28.425781c9.1875 11.464843 19.894532 21.386719 31.710938 29.570312.125.027344.261718.058594.390625.085938 26.738281 5.03125 53.792969 2.617187 78.496093-6.230469.941407-4.597656-.613281-9.4375-4.265624-12.585938zm-82.613282-210.625 7.476563-17.820312c-10.445313 7.304688-19.765625 15.800781-27.855469 25.234375l7.164062.597656c5.675782.472657 11.011719-2.761719 13.214844-8.011719zm-50.667968 94.074219-5.269532-4.542969c-1.367187 12.675782-1.105468 25.617188.855469 38.539063l7.953125-18.953125c2.203125-5.253906.773438-11.324219-3.539062-15.042969zm225.574218-12.886719-49.734375 30.164063c-4.871093 2.953125-7.285156 8.707031-5.984375 14.25l13.316406 56.621094c.917969 3.902343 3.550782 7.042969 6.996094 8.746093 14.875-14.011718 27.148438-31.257812 35.566406-51.316406 8.144532-19.402344 11.902344-39.542968 11.761719-59.332031-3.8125-1.605469-8.25-1.359375-11.921875.867187zm-94.242187-39.546874c-1.300781-5.542969-6.027344-9.617188-11.703125-10.089844l-57.964844-4.835938c-5.675781-.472656-11.007812 2.765625-13.214844 8.015625l-22.507812 53.632813c-2.203125 5.253906-.777344 11.324218 3.539062 15.042968l44.054688 37.984376c4.3125 3.71875 10.527344 4.234374 15.398437 1.28125l49.734375-30.160157c4.871094-2.953125 7.285156-8.707031 5.980469-14.25zm0 0" fill="#95776c"/><path d="m139.152344 301.4375 100.449218 100.445312-89.144531 89.144532c-44.601562-19.550782-82.414062-51.707032-108.90625-91.984375zm0 0" fill="#c6715a"/><path d="m160.109375 322.394531 79.492187 79.488281-89.160156 89.160157c-35.339844-15.496094-66.417968-38.921875-90.980468-68.019531zm0 0" fill="#ec806b"/><path d="m430.496094 267.289062-127.042969 127.042969c-6.730469 6.726563-16.613281 8.355469-24.878906 4.902344-2.796875-1.167969-5.953125-.511719-8.089844 1.640625-.011719.011719-.027344.027344-.039063.039062l-46.496093 46.496094c-5.339844 5.339844-13.777344 5.558594-18.847657.488282l-118.042968-118.042969c-5.070313-5.066407-4.851563-13.507813.488281-18.847657l46.496094-46.496093c2.667969-2.667969 6.109375-4.054688 9.515625-4.144531v-78.765626c0-6.277343 2.539062-11.960937 6.644531-16.082031.941406-1.558593 2.078125-3.03125 3.421875-4.375l39.800781-39.800781c8.902344-8.898438 23.328125-8.898438 32.226563 0l3.683594 3.683594c8.898437 8.894531 8.898437 23.324218 0 32.222656l-32.515626 32.515625c-1.585937 1.589844-2.480468 3.742187-2.480468 5.984375 0 7.542969 9.117187 11.316406 14.449218 5.984375l115.300782-115.300781c8.898437-8.898438 23.324218-8.898438 32.226562 0l3.683594 3.683594c8.898438 8.898437 8.898438 23.324218 0 32.222656l18.949219-18.949219c8.898437-8.898437 23.324219-8.898437 32.222656 0l3.683594 3.679687c8.902343 8.898438 8.902343 23.328126 0 32.226563l-25.265625 25.269531c8.898437-8.898437 23.324218-8.898437 32.222656 0l3.683594 3.683594c8.898437 8.898438 8.898437 23.324219 0 32.222656l-30.914063 30.910156h.003907c8.898437-8.898437 23.324218-8.898437 32.222656 0l3.683594 3.683594c8.902343 8.894532 8.902343 23.324219.003906 32.222656zm0 0" fill="#fdbf43"/><path d="m246.691406 234.5625 131.929688-131.929688c8.898437-8.898437 23.324218-8.898437 32.222656 0l3.683594 3.683594c2.066406 2.066406 3.640625 4.429688 4.746094 6.953125-8.34375-3.652343-18.429688-2.070312-25.257813 4.757813l-131.925781 131.929687c-4.253906 4.253907-11.144532 4.253907-15.398438 0-4.25-4.25-4.25-11.144531 0-15.394531zm183.785156.453125-3.683593-3.683594c-8.898438-8.898437-23.328125-8.898437-32.226563 0l-75.75 75.75c-4.25 4.253907-4.25 11.144531 0 15.398438 4.25 4.25 11.144532 4.25 15.398438 0l75.75-75.753907c6.828125-6.828124 16.914062-8.410156 25.253906-4.757812-1.101562-2.523438-2.679688-4.890625-4.742188-6.953125zm-40.898437-70.5-105.277344 105.28125c-4.253906 4.25-4.253906 11.144531 0 15.394531 4.25 4.253906 11.144531 4.253906 15.394531 0l105.28125-105.277344c6.828126-6.828124 16.910157-8.410156 25.253907-4.757812-1.101563-2.523438-2.679688-4.890625-4.742188-6.957031l-3.683593-3.683594c-8.898438-8.898437-23.328126-8.898437-32.226563 0zm-207.945313 60.273437c-9.527343-9.527343-14.878906-22.445312-14.878906-35.917968 0-4.941406 1.574219-9.515625 4.242188-13.246094.726562-1.011719 4.480468-5.871094 5.824218-7.214844l46.707032-46.707031c.277344-.277344.5625-.546875.847656-.804687-8.945312-8.085938-22.753906-7.816407-31.375.804687l-39.804688 39.804687c-1.34375 1.34375-4.988281 6.070313-5.671874 7.003907-2.761719 3.769531-4.394532 8.417969-4.394532 13.449219v98.609374c0 4.699219-2.085937 6.746094-2.085937 6.746094-3.703125-3.703125-9.792969-3.554687-13.304688.441406-3.203125 3.648438-2.796875 9.234376.636719 12.667969l99.140625 99.140625c3.699219 3.703125 9.792969 3.554688 13.304687-.441406 3.203126-3.648438 2.796876-9.238281-.636718-12.667969l-86.957032-86.960937c3.625 2.4375 13.527344-4.121094 13.527344-12.019532v-.234374l86.117188 86.121093c3.558594 3.558594 9.332031 3.558594 12.890625 0 3.558593-3.558593 3.558593-9.328125 0-12.890625l-88.042969-88.042968c-4.628906-4.628907-8.167969-10.273438-10.042969-16.542969-.53125-1.773438-.886719-3.476563-.890625-4.863281v-.222657c-.007812-5.566406 6.722656-8.359375 10.660156-4.425781l111.832032 111.835938c3.703125 3.703124 9.796875 3.554687 13.304687-.441407 3.203125-3.648437 2.796875-9.238281-.636719-12.667969.003907 0-85.179687-85.179687-120.3125-120.3125zm29.4375-10.121093c4.25 4.253906 11.144532 4.253906 15.398438 0l112.976562-112.976563c6.828126-6.828125 16.910157-8.410156 25.257813-4.757812-1.105469-2.523438-2.679687-4.890625-4.746094-6.957032l-3.683593-3.683593c-8.898438-8.898438-23.328126-8.898438-32.222657 0l-112.980469 112.980469c-4.25 4.25-4.25 11.144531 0 15.394531zm0 0" fill="#fc9302"/><path d="m206.546875 383.515625c-18.179687 18.175781-47.652344 18.175781-65.828125 0l-53.863281-53.863281c-4.957031-4.957032-4.957031-12.996094 0-17.953125l47.878906-47.875c4.957031-4.960938 12.996094-4.960938 17.953125 0l53.859375 53.859375c18.179687 18.179687 18.179687 47.652344 0 65.832031zm0 0" fill="#e8ce00"/><path d="m206.546875 383.515625c-18.179687 18.175781-47.652344 18.175781-65.828125 0l-32.480469-32.480469c-4.957031-4.957031-4.957031-12.996094 0-17.953125l47.875-47.878906c4.957031-4.957031 12.996094-4.957031 17.953125 0l32.480469 32.480469c18.179687 18.179687 18.179687 47.652344 0 65.832031zm0 0" fill="#fded32"/></svg>