<svg id="Capa_1" enable-background="new 0 0 512 512" height="512" viewBox="0 0 512 512" width="512" xmlns="http://www.w3.org/2000/svg"><g><g><path d="m22.5 253.002-10 198.011 492-10v-188.011l-82.231-31.531z" fill="#acd980"/><path d="m504.5 221.471h-497v234.542h497v-15h-482v-188.011h482z" fill="#8cc951"/><path d="m256 343.458c-11.707 0-22.577 3.577-31.583 9.695-6.118 9.005-19.695 29.876-19.695 41.583 0 31.081 25.196 56.278 56.278 56.278 11.707 0 32.577-13.577 41.583-19.695 6.118-9.005 9.695-19.876 9.695-31.583 0-31.082-25.197-56.278-56.278-56.278z" fill="#f5fcff"/><path d="m214.722 384.736c0-11.707 3.577-22.577 9.695-31.583-14.903 10.124-24.695 27.209-24.695 46.583 0 31.081 25.196 56.278 56.278 56.278 19.374 0 36.459-9.792 46.583-24.695-9.005 6.117-19.875 9.695-31.583 9.695-31.081-.001-56.278-25.197-56.278-56.278z" fill="#d6e0f4"/><path d="m429.769 55.987h-340.038l-10 197.016c8.284 0 25-11.191 25-12.66v-154.356l307.538-5v172.016c22.189 0 25-11.191 25-12.66v-176.856c0-4.143-3.358-7.5-7.5-7.5z" fill="#f5fcff"/><path d="m89.731 243.002v-187.015h-7.5c-4.142 0-7.5 3.358-7.5 7.5v191.856c0 1.469 6.716 2.66 15 2.66s15-1.191 15-2.66v-15c0 1.468-6.716 2.659-15 2.659z" fill="#d6e0f4"/><path d="m422.269 243.002v-172.015h-317.538v15h302.538v169.356c0 1.469 6.716 2.66 15 2.66s15-1.191 15-2.66v-15c0 1.468-6.716 2.659-15 2.659z" fill="#d6e0f4"/><g><path d="m287.254 463.513h-62.508c-4.143 0-7.5-3.358-7.5-7.5s3.357-7.5 7.5-7.5h62.508c4.143 0 7.5 3.358 7.5 7.5s-3.358 7.5-7.5 7.5z"/></g></g><g><path d="m504.5 463.513h-187.246c-4.143 0-7.5-3.358-7.5-7.5s3.357-7.5 7.5-7.5h187.246c4.143 0 7.5 3.358 7.5 7.5s-3.357 7.5-7.5 7.5zm-217.246 0h-62.508c-4.143 0-7.5-3.358-7.5-7.5 0-1.7.565-3.268 1.519-4.526-16.064-11.592-26.542-30.472-26.542-51.752 0-35.167 28.61-63.778 63.777-63.778s63.777 28.611 63.777 63.778c0 21.28-10.478 40.16-26.542 51.752.953 1.258 1.519 2.826 1.519 4.526 0 4.143-3.358 7.5-7.5 7.5zm-31.254-15c8.015 0 15.581-1.942 22.259-5.381l-9.65-13.283c-4.053.659-8.275.992-12.609.992-4.333 0-8.555-.333-12.607-.992l-9.65 13.283c6.676 3.44 14.242 5.381 22.257 5.381zm24.743-27.482 9.641 13.27c8.886-8.839 14.394-21.071 14.394-34.565 0-2.642-.211-5.234-.617-7.763l-15.624 5.077c-.626 4.056-1.615 8.174-2.955 12.299-1.339 4.119-2.96 8.031-4.839 11.682zm-72.903-29.058c-.406 2.529-.617 5.121-.617 7.763 0 13.494 5.508 25.726 14.394 34.565l9.64-13.269c-1.879-3.65-3.5-7.563-4.839-11.684-1.34-4.123-2.328-8.242-2.954-12.299zm37.139 22.932c3.501.622 7.194.937 11.021.937s7.52-.314 11.021-.937c1.674-3.138 3.114-6.553 4.296-10.191 1.184-3.643 2.026-7.253 2.517-10.772-2.465-2.559-5.269-4.984-8.366-7.235-3.099-2.251-6.271-4.168-9.467-5.722-3.195 1.554-6.368 3.471-9.466 5.722-3.099 2.252-5.902 4.677-8.367 7.235.491 3.521 1.334 7.131 2.517 10.771 1.18 3.639 2.621 7.055 4.294 10.192zm18.521-46.943c3.664 1.848 7.274 4.061 10.782 6.61 3.508 2.548 6.729 5.299 9.618 8.212l15.615-5.074c-6.978-13.729-20.263-23.736-36.016-26.177v16.429zm-51.016 9.748 15.613 5.073c2.89-2.912 6.11-5.663 9.619-8.212 3.508-2.549 7.119-4.762 10.783-6.611v-16.427c-15.752 2.441-29.037 12.448-36.015 26.177zm-17.738 85.803h-187.246c-4.143 0-7.5-3.358-7.5-7.5s3.357-7.5 7.5-7.5h187.246c4.143 0 7.5 3.358 7.5 7.5s-3.357 7.5-7.5 7.5zm309.754-142.555h-401.77c-4.143 0-7.5-3.358-7.5-7.5s3.357-7.5 7.5-7.5h389.307l-22.852-43.116h-29.239c-4.348 2.232-11.057 2.66-17.677 2.66s-13.329-.428-17.677-2.66h-54.528c-4.143 0-7.5-3.358-7.5-7.5s3.357-7.5 7.5-7.5h49.705v-18.871h-287.539v18.871h207.834c4.143 0 7.5 3.358 7.5 7.5s-3.357 7.5-7.5 7.5h-212.657c-4.348 2.232-11.057 2.66-17.677 2.66s-13.329-.428-17.677-2.66h-29.238l-22.853 43.116h52.768c4.143 0 7.5 3.358 7.5 7.5s-3.357 7.5-7.5 7.5h-65.23c-2.631 0-5.069-1.378-6.426-3.633-1.357-2.254-1.433-5.055-.201-7.379l24.965-47.104h-18.338c-4.143 0-7.5-3.358-7.5-7.5s3.357-7.5 7.5-7.5h59.73v-18.871h-59.73c-4.143 0-7.5-3.358-7.5-7.5s3.357-7.5 7.5-7.5h59.73v-150.484c0-8.271 6.729-15 15-15h57.558c4.143 0 7.5 3.358 7.5 7.5s-3.357 7.5-7.5 7.5h-57.558v186.616c1.85.221 4.373.399 7.5.399s5.65-.179 7.5-.399v-164.116c0-4.142 3.357-7.5 7.5-7.5h302.54c4.143 0 7.5 3.358 7.5 7.5v164.116c1.85.221 4.373.399 7.5.399s5.65-.178 7.5-.399v-186.616h-259.982c-4.143 0-7.5-3.358-7.5-7.5s3.357-7.5 7.5-7.5h259.982c8.271 0 15 6.729 15 15v150.484h59.73c4.143 0 7.5 3.358 7.5 7.5s-3.357 7.5-7.5 7.5h-59.73v18.871h59.73c4.143 0 7.5 3.358 7.5 7.5s-3.357 7.5-7.5 7.5h-18.338l24.965 47.104c1.231 2.325 1.156 5.125-.201 7.379s-3.795 3.633-6.426 3.633zm-123.347-106.987h18.616v-18.871h-18.616zm-33.614 0h18.614v-18.871h-18.614zm-33.616 0h18.616v-18.871h-18.616zm-33.615 0h18.615v-18.871h-18.615zm-33.616 0h18.615v-18.871h-18.615zm-33.615 0h18.615v-18.871h-18.615zm-33.615 0h18.615v-18.871h-18.615zm-33.615 0h18.615v-18.871h-18.615zm-33.617 0h18.616v-18.871h-18.616zm268.923-33.871h18.616v-18.871h-18.616zm-33.614 0h18.614v-18.871h-18.614zm-33.616 0h18.616v-18.871h-18.616zm-33.615 0h18.615v-18.871h-18.615zm-33.616 0h18.615v-18.871h-18.615zm-33.615 0h18.615v-18.871h-18.615zm-33.615 0h18.615v-18.871h-18.615zm-33.615 0h18.615v-18.871h-18.615zm-33.617 0h18.616v-18.871h-18.616zm268.923-33.871h18.616v-18.871h-18.616zm-33.614 0h18.614v-18.871h-18.614zm-33.616 0h18.616v-18.871h-18.616zm-33.615 0h18.615v-18.871h-18.615zm-33.616 0h18.615v-18.871h-18.615zm-33.615 0h18.615v-18.871h-18.615zm-33.615 0h18.615v-18.871h-18.615zm-33.615 0h18.615v-18.871h-18.615zm-33.617 0h18.616v-18.871h-18.616zm268.923-33.871h18.616v-18.871h-18.616zm-33.614 0h18.614v-18.871h-18.614zm-33.616 0h18.616v-18.871h-18.616zm-33.615 0h18.615v-18.871h-18.615zm-33.616 0h18.615v-18.871h-18.615zm-33.615 0h18.615v-18.871h-18.615zm-33.615 0h18.615v-18.871h-18.615zm-33.615 0h18.615v-18.871h-18.615zm-33.617 0h18.616v-18.871h-18.616z"/></g></g></svg>