<svg id="Capa_1" enable-background="new 0 0 512.003 512.003" height="512" viewBox="0 0 512.003 512.003" width="512" xmlns="http://www.w3.org/2000/svg"><g><g><path d="m372.282 135.308c-32.693 0-62.61 11.872-85.689 31.532-24.818 24.482-40.413 54.825-40.413 88.884 0 76.073 61.67 137.743 137.743 137.743 34.059 0 56.992-12.43 89.048-40.249 19.66-23.079 31.532-52.995 31.532-85.689 0-73.023-59.197-132.221-132.221-132.221z" fill="#f5fcff"/><path d="m255.061 252.529c0-32.693 11.872-62.61 31.532-85.689-28.47 24.252-46.532 60.359-46.532 100.689 0 73.024 59.197 132.221 132.221 132.221 40.33 0 76.437-18.062 100.689-46.532-23.079 19.66-52.996 31.532-85.689 31.532-73.024.001-132.221-59.197-132.221-132.221z" fill="#d6e0f4"/><path d="m123.407 48.389c-34.231 78.782-16.106 155.81-42.772 214.76l28.274 38.55c3.677 5.745 11.011 7.924 17.228 5.118l37.873-27.09c.278-.125.558-.244.842-.356l68.79-178.563z" fill="#d97b7b"/><path d="m126.137 296.817c-6.217 2.805-13.551.627-17.228-5.118l-18.274-28.55c26.666-58.95-1.459-125.978 32.772-204.76v-10l-14.792 4.308c-38.689 83.155-4.198 153.398-35.023 214.761 0 0-17.082 45.073 24.818 62.867 41.9 17.795 58.599-30.598 58.599-30.598l7.842-20.356c-.284.112-.564.231-.842.356z" fill="#ca4646"/><path d="m123.407 58.389 110.235 42.419 8.375-21.738c1.489-3.866-.438-8.208-4.305-9.696l-99.96-38.465c-11.42 4.95-14.345 17.48-14.345 27.48z" fill="#f5fcff"/><path d="m137.751 30.909-8.266-3.181c-3.363-1.294-7.191-.02-9.076 3.051-4.544 7.405-8.442 14.709-11.795 21.917l14.792 5.692c3.914-9.004 8.628-18.161 14.345-27.479z" fill="#d6e0f4"/><path d="m305.652 432.551c-4.153-4.153-22.404-22.404-43.877-43.877l-121.067-81.59-12.814 5.782c-11.246 5.075-24.512 1.134-31.164-9.258l-23.138-36.149c-.898-1.403-2.014-2.493-3.253-3.299 0 0-50.753 50.369-54.725 90.516-.133 1.346.035 8.686 2.184 9.634l192.465 86.856c34.192 15.091 81.01 19.324 100.824 5.733 3.769-8.791.888-18.024-5.435-24.348z" fill="#8a94db"/><path d="m210.262 441.167-185.465-81.857c-2.149-.949-2.34-3.291-2.184-4.634 2.279-19.683 15.213-43.645 43.196-71.628l4.529-18.889c-5.907-3.844-14.664-1.092-16.519 6.628l-1.696 7.06c-30.999 30.999-41.882 55.13-44.51 77.829-.829 7.165 3.096 14.037 9.694 16.949l38.834 17.14 73.787 23.976 86.722 46.075c35.226 12.956 73.523 20.435 88.939 5.019 2.536-2.536 4.332-5.215 5.498-7.935-23.251 9.442-66.633-.642-100.825-15.733z" fill="#717ed4"/><path d="m251.832 378.731c-32.658-32.658-68.731-68.731-73.625-73.625-7.815-7.815-15.202-8.084-21.198-5.379l-2.389 1.078s70.88 76.88 76.964 82.964c6.188 6.188 18.116 5.249 20.248-5.038z" fill="#f5fcff"/><path d="m261.775 388.674c-3.254-3.254-6.579-6.579-9.943-9.943-6.292 5.543-14.06 5.226-20.248-.961-6.084-6.084-68.949-68.949-76.964-76.964l-13.913 6.278c8.475 8.475 70.098 70.098 81.417 81.417 12.162 12.161 27.593 12.231 39.651.173z" fill="#d6e0f4"/><path d="m104.134 347.299c-20.872-20.872-54.824-3.296-52.644 23.792l38.061 26.799 98.763 33.59z" fill="#f5fcff"/><path d="m56.142 389.765 139.12 61.402c6.838 3.018 14.048 5.95 21.388 8.649l-28.336-28.336-136.825-60.389c.169 2.101.548 4.258 1.175 6.46.897 3.149 3.478 12.214 3.478 12.214z" fill="#d6e0f4"/></g><g><g><path d="m270.125 492.281c-1.012 0-2.04-.206-3.024-.641-3.79-1.672-5.505-6.101-3.833-9.89l.776-1.759c-8.378-1.056-17.019-2.926-25.428-5.215l-2.376 5.382c-1.673 3.789-6.101 5.504-9.89 3.833-3.789-1.673-5.505-6.101-3.833-9.89l1.636-3.706c-9.336-3.099-17.949-6.449-25.028-9.408l-2.02 4.577c-1.673 3.789-6.101 5.504-9.89 3.833-3.79-1.673-5.505-6.101-3.833-9.89l1.99-4.509-62.296-27.496c-3.79-1.673-5.506-6.101-3.833-9.89 1.672-3.791 6.1-5.507 9.89-3.833l55.272 24.396-85.575-85.571c-9.423-9.423-21.15-7.84-28.331-3.619-7.18 4.221-14.271 13.696-10.622 26.513l2.513 8.827 39.526 17.445c3.79 1.672 5.506 6.101 3.833 9.89-1.673 3.79-6.101 5.503-9.89 3.833l-35.885-15.838-1.99 4.509c-1.672 3.79-6.102 5.505-9.89 3.833-3.79-1.673-5.505-6.101-3.833-9.89l1.99-4.509-18.438-8.138-1.99 4.509c-1.673 3.789-6.103 5.504-9.89 3.833-3.79-1.673-5.505-6.101-3.833-9.89l1.99-4.509c-9.545-4.308-15.137-14.163-13.929-24.59 3.169-27.371 17.118-52.346 45.159-80.762l1.206-5.017c1.752-7.294 7.436-12.599 14.833-13.844 3.198-.538 6.34-.256 9.207.751 9.083-22.574 9.97-46.507 10.067-72.906.016-4.132 3.371-7.472 7.5-7.472h.028c4.142.016 7.487 3.386 7.472 7.527-.107 28.949-1.245 57.159-13.473 83.843l20.885 32.63c4.611 7.202 13.966 9.981 21.763 6.466l26.309-11.872 72.828-189.044-32.763-12.607c-3.866-1.488-5.794-5.828-4.306-9.693 1.487-3.867 5.827-5.795 9.693-4.307l32.769 12.61 5.68-14.743-108.227-41.645c-2.869 4.674-5.474 9.312-7.838 13.912l50.632 19.483c3.866 1.488 5.794 5.828 4.306 9.693-1.487 3.866-5.829 5.794-9.693 4.307l-51.614-19.861c-13.542 32.08-16.246 62.294-16.794 90.592-.08 4.142-3.515 7.454-7.644 7.354-4.142-.081-7.434-3.503-7.354-7.645.744-38.381 5.284-80.175 33.227-125.711 3.771-6.146 11.407-8.723 18.156-6.124l108.228 41.647c3.74 1.438 6.696 4.249 8.322 7.912 1.626 3.662 1.729 7.739.288 11.479l-80.647 209.34c4.656.908 9.847 3.4 15.143 8.697l26.992 26.99c2.929 2.929 2.929 7.678 0 10.606-2.929 2.93-7.678 2.929-10.606.001l-26.992-26.991c-5.878-5.88-9.934-5.145-12.811-3.846l-6.407 2.891 73.742 73.742c4.539 4.539 9.585 6.95 14.593 6.973h.069c2.813 0 5.629-.756 8.352-2.222l-28.896-28.896c-2.929-2.93-2.929-7.678 0-10.607 2.929-2.928 7.678-2.928 10.606 0l78.802 78.802c5.611 5.611 8.909 12.765 9.286 20.144.426 8.34-2.807 16.206-9.349 22.748-7.417 7.416-18.38 10.463-30.854 10.763l-3.048 6.906c-1.236 2.805-3.983 4.474-6.863 4.474zm-49.268-38.865c38.765 14.118 68.849 16.694 79.428 6.115 3.507-3.507 5.181-7.334 4.975-11.376-.187-3.662-1.931-7.321-4.912-10.301l-39.021-39.021c-5.976 4.196-12.595 6.355-19.373 6.336-9.047-.04-17.738-3.971-25.134-11.365l-77.753-77.753-8.09 3.65c-14.532 6.556-31.972 1.376-40.566-12.052l-23.137-36.148c-1.053-1.646-2.598-1.659-3.425-1.519-.827.139-2.282.656-2.738 2.556l-1.696 7.06c-.323 1.345-1.011 2.573-1.989 3.552-26.489 26.488-39.554 49.122-42.363 73.388-.455 3.926 1.664 7.633 5.272 9.226l24.366 10.754c-3.233-16.053 3.826-32.018 18.197-40.465 15.293-8.988 33.996-6.6 46.538 5.944zm151.425-46.165c-77.042 0-139.721-62.679-139.721-139.722 0-77.042 62.679-139.721 139.721-139.721s139.721 62.679 139.721 139.721c0 77.043-62.679 139.722-139.721 139.722zm-107.498-76.531c21.711 36.794 61.771 61.531 107.498 61.531 4.072 0 8.096-.196 12.069-.579l-6.889-43.49c-12.859-3.496-25.819-8.554-38.599-15.064-12.786-6.515-24.497-14.026-34.88-22.37zm127.494 15.115 6.89 43.498c47.234-10.416 84.502-47.684 94.918-94.918l-43.498-6.89c-7.301 11.151-16.116 21.916-26.255 32.055s-20.904 18.954-32.055 26.255zm-80.044-47.71c9.859 8.07 21.094 15.337 33.439 21.627 12.338 6.286 24.821 11.103 37.151 14.336 10.729-6.888 21.112-15.325 30.902-25.114 9.79-9.79 18.228-20.173 25.115-30.902-2.282-8.699-5.355-17.496-9.154-26.197-1.657-3.796.076-8.217 3.873-9.874s8.218.076 9.875 3.872c3.883 8.894 7.07 17.899 9.501 26.838l43.49 6.889c.383-3.973.579-7.998.579-12.069 0-45.728-24.737-85.786-61.531-107.498l-19.973 39.199c5.505 6.852 10.662 14.294 15.37 22.187 2.122 3.558.958 8.161-2.6 10.283-3.558 2.12-8.162.957-10.283-2.6-4.617-7.74-9.69-15-15.108-21.619-12.716-.731-26.078-.008-39.765 2.158-13.687 2.168-26.616 5.607-38.485 10.235-4.628 11.87-8.067 24.8-10.235 38.485-2.17 13.686-2.894 27.047-2.161 39.764zm-33.247-113.284c-19.542 22.025-31.426 50.998-31.426 82.688 0 17.709 3.708 34.563 10.392 49.836l39.221-19.983c-.647-13.303.159-27.192 2.404-41.367 2.245-14.174 5.771-27.633 10.497-40.086zm10.607-10.607 31.087 31.087c12.453-4.726 25.912-8.252 40.086-10.496 14.174-2.245 28.064-3.052 41.368-2.404l19.984-39.221c-15.272-6.684-32.127-10.392-49.836-10.392-31.692.001-60.664 11.885-82.689 31.426z"/></g></g></g></svg>