<svg xmlns="http://www.w3.org/2000/svg" height="612pt" version="1.1" viewBox="1 -45 612.787 612" width="612pt">
<g id="surface1">
<path d="M 362.691406 286.476562 C 362.691406 252.621094 337.535156 225.175781 306.5 225.175781 C 275.464844 225.175781 250.308594 252.621094 250.308594 286.476562 C 250.308594 320.332031 275.464844 347.777344 306.5 347.777344 C 337.535156 347.777344 362.691406 320.332031 362.691406 286.476562 Z M 362.691406 286.476562 " style=" stroke:none;fill-rule:nonzero;fill:rgb(100%,31.372549%,13.72549%);fill-opacity:1;" />
<path d="M 10.214844 470.375 L 255.417969 470.375 C 255.417969 380.089844 200.523438 306.910156 132.816406 306.910156 C 65.113281 306.910156 10.214844 380.089844 10.214844 470.375 Z M 10.214844 470.375 " style=" stroke:none;fill-rule:nonzero;fill:rgb(0%,84.313725%,87.45098%);fill-opacity:1;" />
<path d="M 357.582031 470.375 L 602.785156 470.375 C 602.785156 380.089844 547.890625 306.910156 480.183594 306.910156 C 412.476562 306.910156 357.582031 380.089844 357.582031 470.375 Z M 357.582031 470.375 " style=" stroke:none;fill-rule:nonzero;fill:rgb(0%,84.313725%,87.45098%);fill-opacity:1;" />
<path d="M 536.375 245.609375 C 536.375 211.753906 511.214844 184.308594 480.183594 184.308594 C 449.148438 184.308594 423.992188 211.753906 423.992188 245.609375 C 423.992188 279.464844 449.148438 306.910156 480.183594 306.910156 C 511.214844 306.910156 536.375 279.464844 536.375 245.609375 Z M 536.375 245.609375 " style=" stroke:none;fill-rule:nonzero;fill:rgb(0%,84.313725%,87.45098%);fill-opacity:1;" />
<path d="M 189.007812 245.609375 C 189.007812 211.753906 163.851562 184.308594 132.816406 184.308594 C 101.78125 184.308594 76.625 211.753906 76.625 245.609375 C 76.625 279.464844 101.78125 306.910156 132.816406 306.910156 C 163.851562 306.910156 189.007812 279.464844 189.007812 245.609375 Z M 189.007812 245.609375 " style=" stroke:none;fill-rule:nonzero;fill:rgb(0%,84.313725%,87.45098%);fill-opacity:1;" />
<path d="M 183.898438 511.242188 L 429.101562 511.242188 C 429.101562 420.957031 374.207031 347.777344 306.5 347.777344 C 238.796875 347.777344 183.898438 420.957031 183.898438 511.242188 Z M 183.898438 511.242188 " style=" stroke:none;fill-rule:nonzero;fill:rgb(100%,31.372549%,13.72549%);fill-opacity:1;" />
<path d="M 306.5 174.09375 C 295.214844 174.09375 286.066406 164.945312 286.066406 153.660156 L 265.632812 153.660156 C 265.703125 172.238281 278.292969 188.429688 296.28125 193.074219 L 296.28125 204.742188 L 316.714844 204.742188 L 316.714844 193.074219 C 338.53125 187.460938 351.664062 165.226562 346.046875 143.414062 C 341.40625 125.371094 325.128906 112.769531 306.5 112.792969 C 295.214844 112.792969 286.066406 103.644531 286.066406 92.359375 C 286.066406 81.074219 295.214844 71.925781 306.5 71.925781 C 317.785156 71.925781 326.933594 81.074219 326.933594 92.359375 L 347.367188 92.359375 C 347.296875 73.78125 334.703125 57.589844 316.714844 52.945312 L 316.714844 41.277344 L 296.28125 41.277344 L 296.28125 52.941406 C 274.46875 58.558594 261.335938 80.792969 266.949219 102.605469 C 271.59375 120.644531 287.871094 133.25 306.5 133.226562 C 317.785156 133.226562 326.933594 142.371094 326.933594 153.65625 C 326.933594 164.945312 317.785156 174.09375 306.5 174.09375 Z M 306.5 174.09375 " style=" stroke:none;fill-rule:nonzero;fill:rgb(13.72549%,12.156863%,12.54902%);fill-opacity:1;" />
<path d="M 480.183594 133.226562 C 468.898438 133.226562 459.75 124.078125 459.75 112.792969 L 439.316406 112.792969 C 439.386719 131.371094 451.976562 147.566406 469.964844 152.210938 L 469.964844 163.875 L 490.398438 163.875 L 490.398438 152.210938 C 512.214844 146.59375 525.34375 124.359375 519.730469 102.546875 C 515.089844 84.503906 498.8125 71.902344 480.183594 71.925781 C 468.898438 71.925781 459.75 62.777344 459.75 51.496094 C 459.75 40.210938 468.898438 31.0625 480.183594 31.0625 C 491.46875 31.0625 500.617188 40.210938 500.617188 51.496094 L 521.050781 51.496094 C 520.980469 32.914062 508.386719 16.722656 490.398438 12.078125 L 490.398438 0.410156 L 469.964844 0.410156 L 469.964844 12.078125 C 448.152344 17.691406 435.019531 39.925781 440.632812 61.738281 C 445.277344 79.78125 461.554688 92.382812 480.183594 92.359375 C 491.46875 92.359375 500.617188 101.507812 500.617188 112.792969 C 500.617188 124.078125 491.46875 133.226562 480.183594 133.226562 Z M 480.183594 133.226562 " style=" stroke:none;fill-rule:nonzero;fill:rgb(13.72549%,12.156863%,12.54902%);fill-opacity:1;" />
<path d="M 122.597656 133.226562 C 111.316406 133.226562 102.167969 124.078125 102.167969 112.792969 L 81.734375 112.792969 C 81.804688 131.371094 94.394531 147.566406 112.382812 152.210938 L 112.382812 163.875 L 132.816406 163.875 L 132.816406 152.210938 C 154.628906 146.59375 167.761719 124.359375 162.148438 102.546875 C 157.503906 84.503906 141.226562 71.902344 122.597656 71.925781 C 111.316406 71.925781 102.167969 62.777344 102.167969 51.496094 C 102.167969 40.210938 111.316406 31.0625 122.597656 31.0625 C 133.882812 31.0625 143.03125 40.210938 143.03125 51.496094 L 163.464844 51.496094 C 163.394531 32.914062 150.804688 16.722656 132.816406 12.078125 L 132.816406 0.410156 L 112.382812 0.410156 L 112.382812 12.078125 C 90.570312 17.691406 77.4375 39.925781 83.050781 61.738281 C 87.695312 79.78125 103.972656 92.382812 122.597656 92.359375 C 133.882812 92.359375 143.03125 101.507812 143.03125 112.792969 C 143.035156 124.078125 133.882812 133.226562 122.597656 133.226562 Z M 122.597656 133.226562 " style=" stroke:none;fill-rule:nonzero;fill:rgb(13.72549%,12.156863%,12.54902%);fill-opacity:1;" />
<path d="M 518.3125 304.070312 C 536.34375 290.0625 546.800781 268.441406 546.59375 245.609375 C 547.902344 207.558594 518.226562 175.597656 480.183594 174.09375 C 442.140625 175.597656 412.464844 207.558594 413.777344 245.609375 C 413.566406 268.417969 424.003906 290.019531 442.003906 304.027344 C 413.921875 315.839844 390.5625 336.648438 375.597656 363.183594 C 366.257812 355.578125 355.824219 349.425781 344.648438 344.9375 C 362.671875 330.925781 373.121094 309.304688 372.910156 286.476562 C 374.21875 248.425781 344.542969 216.464844 306.5 214.960938 C 268.457031 216.464844 238.78125 248.425781 240.09375 286.476562 C 239.882812 309.308594 250.34375 330.929688 268.371094 344.9375 C 257.199219 349.425781 246.765625 355.578125 237.425781 363.183594 C 222.460938 336.648438 199.097656 315.839844 171.015625 304.027344 C 189.011719 290.015625 199.441406 268.414062 199.226562 245.609375 C 200.535156 207.558594 170.859375 175.597656 132.816406 174.09375 C 94.773438 175.597656 65.097656 207.558594 66.410156 245.609375 C 66.199219 268.441406 76.660156 290.0625 94.6875 304.070312 C 39.988281 325.554688 0 391.941406 0 470.375 C 0 476.019531 4.574219 480.59375 10.214844 480.59375 L 175.878906 480.59375 C 174.453125 490.746094 173.722656 500.988281 173.683594 511.242188 C 173.683594 516.886719 178.257812 521.457031 183.898438 521.457031 L 429.101562 521.457031 C 434.742188 521.457031 439.316406 516.882812 439.316406 511.242188 C 439.28125 500.988281 438.546875 490.746094 437.121094 480.59375 L 602.785156 480.59375 C 608.425781 480.59375 613 476.019531 613 470.375 C 613 391.941406 573.011719 325.554688 518.3125 304.070312 Z M 434.207031 245.609375 C 432.902344 218.84375 453.429688 196.039062 480.183594 194.527344 C 506.9375 196.039062 527.464844 218.84375 526.15625 245.609375 C 527.464844 272.375 506.9375 295.183594 480.183594 296.695312 C 453.429688 295.179688 432.902344 272.375 434.207031 245.609375 Z M 260.523438 286.476562 C 259.21875 259.710938 279.746094 236.902344 306.5 235.390625 C 333.253906 236.902344 353.78125 259.710938 352.472656 286.476562 C 353.78125 313.238281 333.253906 336.046875 306.5 337.558594 C 279.746094 336.046875 259.21875 313.238281 260.523438 286.476562 Z M 86.839844 245.609375 C 85.535156 218.84375 106.0625 196.039062 132.816406 194.527344 C 159.570312 196.039062 180.097656 218.84375 178.792969 245.609375 C 180.097656 272.375 159.570312 295.183594 132.816406 296.695312 C 106.0625 295.179688 85.535156 272.375 86.839844 245.609375 Z M 20.679688 460.160156 C 24.519531 380.40625 73.367188 317.125 132.816406 317.125 C 167.789062 317.125 200.714844 339.5 222.027344 377.3125 C 201.011719 400.832031 186.390625 429.359375 179.566406 460.160156 Z M 194.363281 501.027344 C 198.203125 421.273438 247.050781 357.992188 306.5 357.992188 C 365.949219 357.992188 414.796875 421.273438 418.636719 501.027344 Z M 433.429688 460.160156 C 426.609375 429.363281 411.988281 400.832031 390.972656 377.3125 C 412.285156 339.5 445.210938 317.125 480.183594 317.125 C 539.632812 317.125 588.480469 380.410156 592.320312 460.160156 Z M 433.429688 460.160156 " style=" stroke:none;fill-rule:nonzero;fill:rgb(13.72549%,12.156863%,12.54902%);fill-opacity:1;" />
</g>
</svg>